<svg xmlns="http://www.w3.org/2000/svg" width="480" height="239" viewBox="0 0 480 239" role="img" aria-label="Code Hive Factory — Agentes que construyen, revisan y corrigen proyectos en equipo."><title>Code Hive Factory — Agentes que construyen, revisan y corrigen proyectos en equipo.</title><rect x="1" y="1" width="478" height="237" fill="#111d1b" rx="10" stroke="#36564a"/><text x="24" y="30" fill="#8baca2" font-size="11" font-family="monospace" >01 / MULTIAGENTE</text><path d="M240 86 L85 66" stroke="#3d785f" stroke-width="2"/><rect x="69" y="55" width="32" height="22" fill="#193a2c" stroke="#77efbf"/><text x="85" y="70" fill="#77efbf" font-size="11" font-family="monospace" text-anchor="middle">&gt;_</text><path d="M240 86 L130 113" stroke="#3d785f" stroke-width="2"/><rect x="114" y="102" width="32" height="22" fill="#193a2c" stroke="#77efbf"/><text x="130" y="117" fill="#77efbf" font-size="11" font-family="monospace" text-anchor="middle">&gt;_</text><path d="M240 86 L203 70" stroke="#3d785f" stroke-width="2"/><rect x="187" y="59" width="32" height="22" fill="#193a2c" stroke="#77efbf"/><text x="203" y="74" fill="#77efbf" font-size="11" font-family="monospace" text-anchor="middle">&gt;_</text><path d="M240 86 L281 111" stroke="#3d785f" stroke-width="2"/><rect x="265" y="100" width="32" height="22" fill="#193a2c" stroke="#77efbf"/><text x="281" y="115" fill="#77efbf" font-size="11" font-family="monospace" text-anchor="middle">&gt;_</text><path d="M240 86 L372 68" stroke="#3d785f" stroke-width="2"/><rect x="356" y="57" width="32" height="22" fill="#193a2c" stroke="#77efbf"/><text x="372" y="72" fill="#77efbf" font-size="11" font-family="monospace" text-anchor="middle">&gt;_</text><rect x="219" y="64" width="42" height="38" fill="#284f3d" stroke="#77efbf"/><text x="240" y="88" fill="#77efbf" font-size="15" font-family="monospace" text-anchor="middle">AI</text><text x="24" y="168" fill="#e6edf3" font-size="23" font-family="monospace" font-weight="bold">Code Hive Factory</text><text x="24" y="195" fill="#8baca2" font-size="13" font-family="monospace" >Agentes que construyen, revisan</text><text x="24" y="216" fill="#8baca2" font-size="13" font-family="monospace" >y corrigen proyectos en equipo.</text><text x="444" y="168" fill="#77efbf" font-size="24" font-family="monospace" >↗</text></svg>